<svg width="32" height="8" viewBox="0 0 32 8" fill="none" xmlns="http://www.w3.org/2000/svg">
<path fill-rule="evenodd" clip-rule="evenodd" d="M6.57136 4.00003C6.57136 5.73579 5.16425 7.14289 3.4285 7.14289C1.69275 7.14289 0.285645 5.73579 0.285645 4.00003C0.285645 2.26428 1.69275 0.857178 3.4285 0.857178C5.16425 0.857178 6.57136 2.26428 6.57136 4.00003ZM19.1428 4.00003C19.1428 5.73579 17.7357 7.14289 15.9999 7.14289C14.2642 7.14289 12.8571 5.73579 12.8571 4.00003C12.8571 2.26428 14.2642 0.857178 15.9999 0.857178C17.7357 0.857178 19.1428 2.26428 19.1428 4.00003ZM28.5714 7.14289C30.3071 7.14289 31.7142 5.73579 31.7142 4.00003C31.7142 2.26428 30.3071 0.857178 28.5714 0.857178C26.8356 0.857178 25.4285 2.26428 25.4285 4.00003C25.4285 5.73579 26.8356 7.14289 28.5714 7.14289Z" fill="white"/>
</svg>
